<svg width="512" height="512" viewBox="0 0 512 512" fill="none" xmlns="http://www.w3.org/2000/svg">
<rect width="512" height="512" fill="white"/>
<path d="M161.568 82.2H168.912V176.376H226.944V183H161.568V82.2Z" fill="#9A9A9A"/>
<path d="M245.802 82.2H253.146V183H245.802V82.2ZM307.567 88.824H271.279V82.2H351.199V88.824H314.911V183H307.567V88.824Z" fill="black"/>
<path d="M161.568 332.2H168.912V426.376H226.944V433H161.568V332.2Z" fill="#9A9A9A"/>
<path d="M245.802 332.2H253.146V426.376H311.178V433H245.802V332.2ZM350.453 398.296V433H343.109V398.296L302.501 332.2H310.565L346.997 391.528L383.429 332.2H391.061L350.453 398.296Z" fill="black"/>
<path d="M135.12 301.376V308H65.568V207.2H132.96V213.824H72.912V253.568H126.624V260.048H72.912V301.376H135.12ZM231.88 308L207.832 274.304C204.28 274.784 201.016 275.024 198.04 275.024H169.24V308H161.896V207.2H198.04C210.712 207.2 220.648 210.224 227.848 216.272C235.048 222.224 238.648 230.528 238.648 241.184C238.648 249.152 236.584 255.872 232.456 261.344C228.424 266.72 222.616 270.512 215.032 272.72L240.232 308H231.88ZM198.04 268.544C208.792 268.544 217 266.192 222.664 261.488C228.328 256.688 231.16 249.92 231.16 241.184C231.16 232.448 228.328 225.728 222.664 221.024C217 216.224 208.792 213.824 198.04 213.824H169.24V268.544H198.04Z" fill="#9A9A9A"/>
<path d="M327.889 279.632H269.425L256.609 308H248.689L295.057 207.2H302.401L348.769 308H340.849L327.889 279.632ZM325.153 273.44L298.657 215.264L272.305 273.44H325.153Z" fill="black"/>
<path d="M445.941 381.284L417.657 353L412 358.657L434.627 381.284L412 403.912L417.657 409.569L445.941 381.284Z" fill="black"/>
<path d="M100 129.117L128.284 157.402L133.941 151.745L111.314 129.117L133.941 106.49L128.284 100.833L100 129.117Z" fill="black"/>
<path d="M448.81 424.095V433.101H447.635V424.095H448.81ZM451.705 424.095V425.072H444.746V424.095H451.705ZM453.419 424.095H454.575L457.526 431.437L460.47 424.095H461.633L457.971 433.101H457.068L453.419 424.095ZM453.041 424.095H454.062L454.229 429.588V433.101H453.041V424.095ZM460.984 424.095H462.004V433.101H460.817V429.588L460.984 424.095Z" fill="black"/>
</svg>
